<svg width="0" height="0" class="hidden">
  <symbol xmlns="http://www.w3.org/2000/svg" viewBox="0 0 20 10" id="arrow">
    <path d="M19.863 4.661L15.319.134a.455.455 0 0 0-.641-.05.451.451 0 0 0 0 .688l3.767 3.758H.455a.453.453 0 1 0 0 .905h17.99l-3.767 3.753a.452.452 0 0 0-.05.639.455.455 0 0 0 .69 0L19.864 5.3a.452.452 0 0 0 0-.639z"></path>
    <path fill="#f7f8f3" d="M19.863 4.661L15.319.134a.455.455 0 0 0-.641-.05.451.451 0 0 0 0 .688l3.767 3.758H.455a.453.453 0 1 0 0 .905h17.99l-3.767 3.753a.452.452 0 0 0-.05.639.455.455 0 0 0 .69 0L19.864 5.3a.452.452 0 0 0 0-.639z"></path>
  </symbol>
  <symbol xmlns="http://www.w3.org/2000/svg" viewBox="0 0 20 20" id="search">
    <path d="M19.844 19.822a.584.584 0 0 1-.42.178.603.603 0 0 1-.422-.178l-4.86-4.86a8.49 8.49 0 0 1-5.59 2.093c-4.7 0-8.527-3.827-8.527-8.528C.025 3.827 3.847 0 8.55 0c4.7 0 8.527 3.824 8.527 8.528 0 2.138-.79 4.094-2.093 5.592l4.86 4.86a.6.6 0 0 1 0 .843zm-11.297-3.96c4.044 0 7.33-3.295 7.33-7.335s-3.286-7.33-7.33-7.33c-4.04 0-7.33 3.286-7.33 7.33 0 4.045 3.29 7.335 7.33 7.335z"></path>
    <path fill="#fff" d="M19.844 19.822a.584.584 0 0 1-.42.178.603.603 0 0 1-.422-.178l-4.86-4.86a8.49 8.49 0 0 1-5.59 2.093c-4.7 0-8.527-3.827-8.527-8.528C.025 3.827 3.847 0 8.55 0c4.7 0 8.527 3.824 8.527 8.528 0 2.138-.79 4.094-2.093 5.592l4.86 4.86a.6.6 0 0 1 0 .843zm-11.297-3.96c4.044 0 7.33-3.295 7.33-7.335s-3.286-7.33-7.33-7.33c-4.04 0-7.33 3.286-7.33 7.33 0 4.045 3.29 7.335 7.33 7.335z"></path>
  </symbol>
  <symbol xmlns="http://www.w3.org/2000/svg" viewBox="0 0 40 20" id="slider_arrow">
    <path d="M39.726 9.352L30.637.269a.909.909 0 1 0-1.281 1.28l7.534 7.54H.909a.908.908 0 1 0 0 1.815h35.98l-7.533 7.53a.908.908 0 1 0 1.281 1.28l9.089-9.082a.908.908 0 0 0 0-1.28z"></path>
    <path fill="#6e774a" d="M39.726 9.352L30.637.269a.909.909 0 1 0-1.281 1.28l7.534 7.54H.909a.908.908 0 1 0 0 1.815h35.98l-7.533 7.53a.908.908 0 1 0 1.281 1.28l9.089-9.082a.908.908 0 0 0 0-1.28z"></path>
  </symbol>
  <symbol xmlns="http://www.w3.org/2000/svg" viewBox="0 0 30 16" id="arrow_down">
  <path d="M29.695.304a1.063 1.063 0 00-1.499 0l-13.183 13.17L1.803.304a1.063 1.063 0 00-1.498 0 1.055 1.055 0 000 1.494L14.237 15.69c.207.206.466.31.75.31.258 0 .543-.104.75-.31L29.669 1.798c.44-.412.44-1.082.026-1.494z"/>
  <path fill="#fff" d="M29.695.304a1.063 1.063 0 00-1.499 0l-13.183 13.17L1.803.304a1.063 1.063 0 00-1.498 0 1.055 1.055 0 000 1.494L14.237 15.69c.207.206.466.31.75.31.258 0 .543-.104.75-.31L29.669 1.798c.44-.412.44-1.082.026-1.494z"/>
  </symbol>
  <symbol xmlns="http://www.w3.org/2000/svg" viewBox="0 0 16 15" id="star">
    <path d="M15.292 5.11l-4.407-.412a.761.761 0 0 1-.631-.463L8.675.451c-.252-.624-1.149-.624-1.401 0L5.708 4.236a.745.745 0 0 1-.631.463L.67 5.11a.752.752 0 0 0-.429 1.31l3.32 2.886a.742.742 0 0 1 .24.737l-.997 4.045c-.151.638.543 1.162 1.124.825l3.674-2.136a.772.772 0 0 1 .77 0l3.675 2.136a.757.757 0 0 0 1.123-.825l-.984-4.045a.742.742 0 0 1 .24-.737l3.32-2.885c.48-.437.202-1.249-.454-1.311z"/>
	 <path fill="#6e774a" d="M15.292 5.11l-4.407-.412a.761.761 0 0 1-.631-.463L8.675.451c-.252-.624-1.149-.624-1.401 0L5.708 4.236a.745.745 0 0 1-.631.463L.67 5.11a.752.752 0 0 0-.429 1.31l3.32 2.886a.742.742 0 0 1 .24.737l-.997 4.045c-.151.638.543 1.162 1.124.825l3.674-2.136a.772.772 0 0 1 .77 0l3.675 2.136a.757.757 0 0 0 1.123-.825l-.984-4.045a.742.742 0 0 1 .24-.737l3.32-2.885c.48-.437.202-1.249-.454-1.311z"/>
  </symbol>
</svg>